<svg width="19" height="19" viewBox="0 0 19 19" fill="none" xmlns="http://www.w3.org/2000/svg">
<path opacity="0.85" d="M9.5 13.75V5.25M5.25 5.25H13.75M4.4 1H14.6C15.7901 1 16.3852 1 16.8398 1.23161C17.2396 1.43534 17.5647 1.76042 17.7684 2.16027C18 2.61483 18 3.20989 18 4.4V14.6C18 15.7901 18 16.3852 17.7684 16.8398C17.5647 17.2396 17.2396 17.5647 16.8398 17.7684C16.3852 18 15.7901 18 14.6 18H4.4C3.20989 18 2.61483 18 2.16027 17.7684C1.76042 17.5647 1.43534 17.2396 1.23161 16.8398C1 16.3852 1 15.7901 1 14.6V4.4C1 3.20989 1 2.61483 1.23161 2.16027C1.43534 1.76042 1.76042 1.43534 2.16027 1.23161C2.61483 1 3.20989 1 4.4 1Z" stroke="white" stroke-width="2" stroke-linecap="round" stroke-linejoin="round"/>
</svg>
